<svg xmlns="http://www.w3.org/2000/svg" xmlns:xlink="http://www.w3.org/1999/xlink" version="1.1" x="0px" y="0px" viewBox="0 0 100 125" enable-background="new 0 0 100 100" xml:space="preserve">
  <circle cx="57.6" cy="28.2" r="1.5"/>
  <circle cx="41.6" cy="28.2" r="1.5"/>
  <path d="M82.6,71.6c-3.6-6.7-7.8-11.1-13.1-13.8c-1.2-0.6-2.2-1-3.3-1.4c-1.7-0.6-2.9-0.9-4-1c-0.2,0-0.5,0-0.7,0  c-3,0-4.5,2.1-6.2,5.8c-0.7,1.5-1.2,3.1-1.9,4.9c0,0.1,0,0.1-0.1,0.2c-0.3-0.7-0.5-1.4-0.6-1.9c0-0.7,0-1.4,0.1-2.1  c0-0.1,0-0.2,0.1-0.4c0.3-0.7,0.6-1.6,0.4-2.5c0-0.6-0.4-1.6-1.9-1.9c-0.3-0.1-0.7-0.1-1-0.1l-0.4,0c-0.2,0-0.3,0-0.4,0  c-0.2,0-0.4,0-0.7,0.1l-0.2,0c-0.3,0-0.7,0.1-1,0.1c-1.5,0.4-1.8,1.3-1.9,1.9c-0.2,0.9,0.1,1.8,0.4,2.5c0,0.1,0.1,0.2,0.1,0.4  c0.1,0.7,0.1,1.4,0.1,2c-0.1,0.6-0.3,1.3-0.6,2c0-0.1,0-0.1-0.1-0.2c-0.7-1.8-1.2-3.4-1.9-4.9c-0.2-0.4-0.3-0.7-0.5-1  c-0.4-0.8-0.7-1.5-1.1-2.1c-1.2-1.8-2.5-2.8-4.6-2.8c-0.2,0-0.4,0-0.7,0c-0.6,0.1-1.2,0.2-2,0.4c-0.6,0.2-1.3,0.4-2.1,0.6  c-0.6,0.2-1.2,0.4-1.8,0.7c-0.5,0.2-1,0.4-1.5,0.7c-3.4,1.7-6.2,4-8.8,7.1c-0.7,0.9-1.4,1.9-2.1,2.9c-0.8,1.2-1.5,2.4-2.3,3.8  c-2.6,5-1.9,8.3,2.6,11.6c1.6,1.2,16.3,11.5,30.6,11.5c12.8,0,25.3-8.1,30.1-11.5C84.5,79.9,85.2,76.6,82.6,71.6z"/>
  <path d="M30.1,36.2c0.4,1,0.8,2.1,1.3,3.1c0.5,1,1.1,2.1,1.7,3.1c1.1,1.7,2.3,3.3,3.7,4.7c0.6,0.6,1.2,1.2,1.9,1.8  c2.9,2.4,6.4,4,10.2,4.2c0.2,0,0.5,0,0.7,0c1,0,2-0.1,2.9-0.3c7.9-1.5,13.9-9.1,16.5-16.5c1.7,0,3-1.4,3-3.1c0-1.1-0.6-2.1-1.6-2.7  c0.2-1.2,0.3-2.4,0.3-3.6c0-5.9-2.1-11.2-5.6-15.2c-0.9-1-1.9-2-2.9-2.8c-3.5-2.8-7.9-4.5-12.6-4.5c-2.3,0-4.5,0.4-6.6,1.1  c-0.8,0.3-1.5,0.6-2.3,1C35.9,8.8,32.1,13,30,18.3c-0.3,0.8-0.6,1.6-0.8,2.4c-0.5,2-0.9,4.1-0.9,6.3c0,1.1,0.1,2.3,0.3,3.6  c-1,0.5-1.6,1.5-1.6,2.7C27.1,34.9,28.4,36.2,30.1,36.2z M30,32.3l1.1-0.1L31,31.1c-0.2-1.4-0.4-2.8-0.4-4.1c0-2.2,0.3-4.3,0.9-6.3  c0.2-0.8,0.5-1.6,0.9-2.4c1.8-4.1,4.8-7.5,8.6-9.5c0.7-0.4,1.5-0.7,2.3-1c2-0.7,4.1-1.2,6.3-1.2c5.2,0,9.9,2.3,13.3,5.9  c1.1,1.1,2,2.4,2.8,3.8c1.8,3.1,2.9,6.8,2.9,10.8c0,1.3-0.1,2.7-0.4,4.1L68,32.2l1.1,0.1c0.5,0.1,0.8,0.4,0.8,0.8  c0,0.5-0.4,0.9-0.9,0.9c-0.1,0-0.2,0-0.3-0.1l-1.1-0.4l-0.3,1.1c-1.9,6-6.2,12.3-12.1,15c-1.3,0.6-2.7,1-4.1,1.2c0,0,0,0-0.1,0  c-0.5,0.1-1,0.1-1.4,0.1c-0.8,0-1.5-0.1-2.2-0.2c-2.9-0.5-5.6-1.9-7.8-3.9c-0.7-0.6-1.3-1.2-1.9-1.9c-0.3-0.3-0.5-0.6-0.8-0.9  c-0.9-1.1-1.8-2.4-2.5-3.6c-1.1-1.8-1.9-3.8-2.5-5.6l-0.3-1.1L30.4,34c-0.1,0-0.2,0.1-0.3,0.1c-0.5,0-0.9-0.4-0.9-0.9  C29.2,32.7,29.6,32.4,30,32.3z"/></svg>
