<svg xmlns="http://www.w3.org/2000/svg" xmlns:xlink="http://www.w3.org/1999/xlink" version="1.1" x="0px" y="0px" viewBox="0 0 100 125" enable-background="new 0 0 100 100" xml:space="preserve" style="fill: #999;"><path d="M87.717,50.453C94.29,49.011,95,47.931,95,47.931s-9.951,0.9-7.283-2.522c2.664-3.422,1.773-3.004,1.773-3.004  s-2.944,1.967-5.575,3.252c-8.318-11.749-22.594-18.898-38.234-18.898c-17.139,0-32.642,8.581-40.459,22.395  c-0.298,0.526-0.298,1.17,0,1.696c7.818,13.814,23.321,22.395,40.459,22.395c15.162,0,29.041-6.721,37.454-17.836  c2.39-0.475,4.102-0.633,4.581-0.633c0.538,0-1.998-1.063-2.604-2.22c0.332-0.525,0.656-1.056,0.965-1.598  C86.486,50.776,87.018,50.606,87.717,50.453z M45.682,30.201c13.563,0,26.001,5.759,33.839,15.357  c-7.911,9.646-20.469,15.373-33.839,15.373c-13.384,0-25.927-5.724-33.839-15.374C19.681,35.959,32.119,30.201,45.682,30.201z   M45.682,69.799c-14.665,0-28.014-6.733-35.654-17.772c4.329,3.747,15.913,12.896,27.476,14.47  c18.964,2.582,32.441-6.928,38.307-9.054c0.501-0.182,0.996-0.351,1.484-0.51C69.436,65.026,58.026,69.799,45.682,69.799z"/>

</svg>
