<svg xmlns="http://www.w3.org/2000/svg" xmlns:xlink="http://www.w3.org/1999/xlink" version="1.1" x="0px" y="0px" viewBox="0 0 100 125" style="enable-background:new 0 0 100 100;" xml:space="preserve"><style type="text/css">
	.st0{fill:#FFFFFF;}
	.st1{fill:none;stroke:#999;stroke-width:2.5;stroke-linecap:round;stroke-linejoin:round;stroke-miterlimit:10;}

		.st2{clip-path:url(#SVGID_2_);fill:none;stroke:#999;stroke-width:2.5;stroke-linecap:round;stroke-linejoin:round;stroke-miterlimit:10;}
	.st3{fill:#FFFFFF;stroke:#999;stroke-width:2.5;stroke-linecap:round;stroke-linejoin:round;stroke-miterlimit:10;}
	.st4{fill:none;stroke:#999;stroke-width:2;stroke-linecap:round;stroke-linejoin:round;stroke-miterlimit:10;}
	.st5{fill:#999;}
</style><g><g>
<path class="st5" d="M72,63c0.5527344,0,1-0.4472656,1-1s-0.4472656-1-1-1h-6.0479126l6.8359985-9.4121094    c0.3242188-0.4472656,0.2246094-1.0722656-0.2216797-1.3974609c-0.4482422-0.3261719-1.0722656-0.2255859-1.3974609,0.2216797    l-7.1796875,9.8857422l-7.1796875-9.8857422c-0.3242188-0.4462891-0.9482422-0.5449219-1.3974609-0.2216797    c-0.4462891,0.3251953-0.5458984,0.9501953-0.2216797,1.3974609L62.0264282,61H56c-0.5527344,0-1,0.4472656-1,1s0.4472656,1,1,1h7    v4h-7c-0.5527344,0-1,0.4472656-1,1s0.4472656,1,1,1h7v6c0,0.5527344,0.4472656,1,1,1s1-0.4472656,1-1v-6h7    c0.5527344,0,1-0.4472656,1-1s-0.4472656-1-1-1h-7v-4H72z"/><path class="st5" d="M71,41.2180176V32v-8c0-3.9394531-7.7978516-6-15.5-6S40,20.0605469,40,24v8.2414551    C38.5357056,32.0830078,37.0172119,32,35.5,32C27.7978516,32,20,34.0605469,20,38v8v8v8c0,3.9394531,7.5458984,6,15,6
  c2.8818359,0,6.4154663-0.3793945,8.9274902-0.9477539C46.5830078,75.9022217,54.6759033,82,64,82    c11.5791016,0,21-9.4208984,21-21C85,52.0407715,79.3963623,44.1826172,71,41.2180176z M43.399231,57.1220703    c-0.6489258,0.166748-1.1837769,0.2843018-1.9939575,0.4140625c-0.3730469,0.0595703-0.7548828,0.1132812-1.1445312,0.1621094
	 C38.7841797,57.8818359,36.71875,58,35,58c-8.3710938,0-13-2.3652344-13-4v-4.8491211C24.7349854,51.0302734,29.8883057,52,35,52
	    c1.7939453,0,3.9560547-0.1240234,5.5068359-0.3173828c0.4130859-0.0507812,0.8183594-0.1083984,1.2148438-0.171875    c1.5315552-0.2446289,2.9130249-0.5795898,4.1240234-0.9807129c-0.1734009,0.3017578-0.3637695,0.5878906-0.5244141,0.9006348
			 C44.4154053,53.1960449,43.7817993,55.0935059,43.399231,57.1220703z M51,38c0-0.0932617-0.0252686-0.1801758-0.0338745-0.2713623    C52.5487671,37.9614258,54.1849365,38,55,38c1.7939453,0,3.9560547-0.1240234,5.5068359-0.3173828
			  c0.4130859-0.0507812,0.8183594-0.1083984,1.2148438-0.171875C64.9234009,36.9989014,67.4089966,36.1419678,69,35.0549316    v5.5759277c-6.2330933-1.5355225-12.4703979-0.1939697-17.4492188,3.4833984
				 C51.3646851,44.2519531,51.1826782,44.395874,51,44.5401611V38z M55.5,20c8.2412109,0,13.5,2.3691406,13.5,4
				  c0,1.1259766-2.6621094,2.7470703-7.5947266,3.5361328c-0.3730469,0.0595703-0.7548828,0.1132812-1.1445312,0.1621094
					  C58.7841797,27.8818359,56.71875,28,55,28c-8.3710938,0-13-2.3652344-13-4C42,22.3691406,47.2587891,20,55.5,20z M42,27.1508789
						  C44.7349854,29.0302734,49.8883057,30,55,30c1.7939453,0,3.9560547-0.1240234,5.5068359-0.3173828    c0.4130859-0.0507812,0.8183594-0.1083984,1.2148438-0.171875C64.9234009,28.9989014,67.4089966,28.1419678,69,27.0549316V32
							 c0,1.1259766-2.6621094,2.7470703-7.5947266,3.5361328c-0.3730469,0.0595703-0.7548828,0.1132812-1.1445312,0.1621094    C58.7841797,35.8818359,56.71875,36,55,36c-2.1793823,0-4.1386719-0.2198486-5.3278198-0.5882568
							   C48.1037598,34.0274658,45.2830811,33.0598145,42,32.5166016V27.1508789z M35.5,34c8.2412109,0,13.5,2.3691406,13.5,4    c0,1.1259766-2.6621094,2.7470703-7.5947266,3.5361328c-0.3730469,0.0595703-0.7548828,0.1132812-1.1445312,0.1621094
								   C38.7841797,41.8818359,36.71875,42,35,42c-8.3710938,0-13-2.3652344-13-4C22,36.3691406,27.2587891,34,35.5,34z M22,41.1508789    C24.7349854,43.0302734,29.8883057,44,35,44c1.7939453,0,3.9560547-0.1240234,5.5068359-0.3173828
									   c0.4130859-0.0507812,0.8183594-0.1083984,1.2148438-0.171875C44.9199219,43,47.4091797,42.1455078,49,41.0595703v5.2709961    c-0.2648926,0.2664795-0.5061646,0.5351562-0.7442627,0.8029785c-1.2527466,1.0310059-3.7459106,1.9064941-6.8504639,2.4025879    c-0.3730469,0.0595703-0.7548828,0.1132812-1.1445312,0.1621094C38.7841797,49.8818359,36.71875,50,35,50
										   c-8.3710938,0-13-2.3652344-13-4V41.1508789z M35,66c-8.3710938,0-13-2.3652344-13-4v-4.8491211    C24.7349854,59.0302734,29.8883057,60,35,60c1.7939453,0,3.9560547-0.1240234,5.5068359-0.3173828    c0.4130859-0.0507812,0.8183594-0.1083984,1.2138672-0.171875c0.5303955-0.0844727,0.9549561-0.1652832,1.3615723-0.2548828    C43.0298462,59.8830566,43,60.4614258,43,61c0,1.3435059,0.1502075,2.7236328,0.4318848,4.1131592
											   C41.0592651,65.645752,37.7286377,66,35,66z M64,80c-8.7685547,0-16.3486328-5.953125-18.4345703-14.4755859    C45.1904297,63.9912109,45,62.46875,45,61c0-0.5400391,0.0292969-1.1201172,0.0898438-1.7734375    c0.0371094-0.4042969,0.1015625-0.8007812,0.1777344-1.2705078c0.3183594-1.9736328,0.9345703-3.8613281,1.8330078-5.6113281    c0.6533203-1.2734375,1.4238281-2.4472656,2.2900391-3.4873047c0.5654297-0.6787109,1.2167969-1.3447266,2.0576172-2.0947266    c0.4003906-0.3525391,0.8349609-0.7021484,1.2910156-1.0400391C56.0371094,43.2871094,59.9306641,42,64,42    c1.6474609,0,3.3330078,0.2324219,5.0117188,0.6914062l0.2714844,0.0712891    c0.1630859,0.0419922,0.3261719,0.0839844,0.484375,0.1347656C77.6826172,45.4169922,83,52.6923828,83,61
												   C83,71.4765625,74.4765625,80,64,80z"/></g></g>
													</svg>
